<?xml version="1.0" encoding="UTF-8"?>
<svg version="1.1" xmlns="http://www.w3.org/2000/svg" width="442" height="369">
<path d="M0 0 C145.86 0 291.72 0 442 0 C442 121.77 442 243.54 442 369 C296.14 369 150.28 369 0 369 C0 247.23 0 125.46 0 0 Z " fill="#E5F9FE" transform="translate(0,0)"/>
<path d="M0 0 C0 5.28 0 10.56 0 16 C1.32 16 2.64 16 4 16 C4 10.72 4 5.44 4 0 C14.68830717 0.25651937 22.62195721 0.52947504 32 6 C32.86109375 6.46792969 33.7221875 6.93585938 34.609375 7.41796875 C47.4238172 14.66007018 56.30399782 24.51179052 60.34765625 38.93359375 C62.48038107 49.90066593 62.28260555 62.71651998 59.55151367 73.5390625 C58.87741625 76.54698724 58.48928276 79.55294754 58.08984375 82.609375 C57.03441855 90.27433617 55.36231952 97.72973499 53.5625 105.25 C53.26279297 106.53390625 52.96308594 107.8178125 52.65429688 109.140625 C47.32701242 131.69780342 39.25800297 144.01998314 19.390625 156.66015625 C16.95443695 158.16247221 14.49599609 159.59970389 12 161 C11.38382812 161.35449219 10.76765625 161.70898438 10.1328125 162.07421875 C5.23876371 164.56634959 1.13912958 164.50737387 -4 163 C-19.03812974 156.57461729 -36.7080983 144.47826242 -43 129 C-43.45632812 127.90429688 -43.91265625 126.80859375 -44.3828125 125.6796875 C-46.73316494 119.3637528 -48.04458746 112.75373191 -49.5 106.1875 C-49.73061127 105.16044449 -49.73061127 105.16044449 -49.96588135 104.11264038 C-52.17050103 94.2786456 -54.09326322 84.44079703 -55.4921875 74.45703125 C-55.89405502 71.2383419 -55.89405502 71.2383419 -56.5168457 69.10791016 C-59.93687267 54.18698402 -57.46723258 37.33448593 -49.875 24.25 C-42.01074894 12.81108937 -28.72241396 3.23083641 -14.82421875 0.5859375 C-14.11910156 0.51632813 -13.41398437 0.44671875 -12.6875 0.375 C-11.64142578 0.26285156 -11.64142578 0.26285156 -10.57421875 0.1484375 C-7.05497784 -0.05449293 -3.52508685 0 0 0 Z " fill="#0E62A3" transform="translate(215,58)"/>
<path d="M0 0 C4.44739413 -0.07449251 8.8944519 -0.12876257 13.34228516 -0.16479492 C14.85341727 -0.17982543 16.36450618 -0.20025564 17.87548828 -0.22631836 C20.05512187 -0.26295689 22.23417575 -0.27978338 24.4140625 -0.29296875 C25.7232666 -0.3086792 27.0324707 -0.32438965 28.38134766 -0.34057617 C32.30236539 0.02845768 34.67856069 0.91664119 38 3 C42.46717857 9.95772945 42.22576683 18.98572055 42.92773438 27.0390625 C43.59006399 36.58307599 43.59006399 36.58307599 48.640625 44.3125 C49.58470215 45.04919922 49.58470215 45.04919922 50.54785156 45.80078125 C51.02706055 46.19652344 51.50626953 46.59226563 52 47 C52 47.66 52 48.32 52 49 C52.66 49 53.32 49 54 49 C54.226875 48.443125 54.45375 47.88625 54.6875 47.3125 C56 45 56 45 58.50341797 42.78076172 C61.50118467 39.44176673 61.80250526 37.6110129 62.2578125 33.1953125 C62.40863281 31.88949219 62.55945313 30.58367187 62.71484375 29.23828125 C62.8530817 27.86733984 62.98978874 26.49624323 63.125 25.125 C63.40536772 22.43819588 63.70367352 19.75466955 64.0078125 17.0703125 C64.18787842 15.28778076 64.18787842 15.28778076 64.37158203 13.46923828 C65.26545343 8.53454031 66.33566781 4.44807032 70.20581055 1.08081055 C73.75416176 -0.29171464 76.96235606 -0.37627285 80.70703125 -0.29296875 C81.79512337 -0.28660149 81.79512337 -0.28660149 82.90519714 -0.28010559 C85.20801891 -0.26339543 87.50994553 -0.2257596 89.8125 -0.1875 C91.3795446 -0.17244316 92.946603 -0.1587565 94.51367188 -0.14648438 C98.34278957 -0.11351731 102.17124334 -0.06178992 106 0 C105.34 3.96 104.68 7.92 104 12 C88.16 12.495 88.16 12.495 72 13 C72 14.98 72 16.96 72 19 C74.43816585 19.0809723 76.87364384 19.14046972 79.3125 19.1875 C80.00279297 19.21263672 80.69308594 19.23777344 81.40429688 19.26367188 C85.35048142 19.46155199 85.35048142 19.46155199 88.5625 17.5 C89.036875 17.005 89.51125 16.51 90 16 C93.13671875 15.70703125 93.13671875 15.70703125 96.6875 15.8125 C98.45673828 15.85310547 98.45673828 15.85310547 100.26171875 15.89453125 C101.16535156 15.92933594 102.06898438 15.96414062 103 16 C102.99676019 19.05838352 102.97523933 21.15715415 102 24 C99.65566386 26.22102775 96.93544139 27.55980466 94.0625 29 C88.68288179 31.51197404 88.68288179 31.51197404 85.04150391 35.93994141 C84.09758156 39.47164041 83.93600682 42.76407848 84.25 46.375 C83.66180984 50.86877284 81.31083095 53.70621917 77.9375 56.5625 C70.47650834 62.09716903 61.72107438 62.03869846 52.8125 62.125 C52.11881317 62.14225128 51.42512634 62.15950256 50.7104187 62.17727661 C40.2486653 62.35832912 33.86766998 59.99567512 26 53 C25.01 52.34 24.02 51.68 23 51 C22.33984375 48.13671875 22.33984375 48.13671875 21.9375 44.6875 C21.31413996 38.5738121 21.31413996 38.5738121 19 33 C15.9821726 30.85784116 12.64317663 29.27419583 9.32226562 27.65820312 C4.31943572 24.96511816 4.31943572 24.96511816 3.31298828 21.92431641 C3.03515625 19.70703125 3.03515625 19.70703125 3 16 C5.10353495 15.9189794 7.20795952 15.86080093 9.3125 15.8125 C11.07013672 15.76029297 11.07013672 15.76029297 12.86328125 15.70703125 C16 16 16 16 17.4375 17.5 C19.64253642 19.61683496 21.65650074 19.30626901 24.59570312 19.26367188 C25.28599609 19.23853516 25.97628906 19.21339844 26.6875 19.1875 C27.38939453 19.17396484 28.09128906 19.16042969 28.81445312 19.14648438 C30.54329829 19.11120182 32.27174765 19.05739583 34 19 C34 17.02 34 15.04 34 13 C23.44 12.67 12.88 12.34 2 12 C-0.25 4.125 -0.25 4.125 0 0 Z " fill="#DFF5FC" transform="translate(164,131)"/>
<path d="M0 0 C1.4540625 0.0309375 1.4540625 0.0309375 2.9375 0.0625 C3.185 0.68125 3.4325 1.3 3.6875 1.9375 C4.74712759 4.17988845 4.74712759 4.17988845 6.8125 5 C9.70853371 6.44801685 11.10023437 8.43783481 12.9375 11.0625 C12.9375 11.7225 12.9375 12.3825 12.9375 13.0625 C13.9275 12.7325 14.9175 12.4025 15.9375 12.0625 C20.79831826 11.66407227 23.01965446 11.57854508 27.375 13.875 C29.9375 16.0625 29.9375 16.0625 30.9375 19.0625 C32.5875 19.3925 34.2375 19.7225 35.9375 20.0625 C36.13836443 23.77849191 36.0894437 24.83458445 33.9375 28.0625 C32.9475 28.0625 31.9575 28.0625 30.9375 28.0625 C31.48019531 28.71476562 32.02289063 29.36703125 32.58203125 30.0390625 C33.29746094 30.91304687 34.01289063 31.78703125 34.75 32.6875 C35.45769531 33.54601562 36.16539062 34.40453125 36.89453125 35.2890625 C40.8948695 40.71973201 42.33071444 44.59379619 42.1875 51.375 C42.17203125 52.60863281 42.1565625 53.84226563 42.140625 55.11328125 C41.9375 58.0625 41.9375 58.0625 40.9375 59.0625 C39.58655018 59.15518999 38.23082909 59.17997326 36.87670898 59.17602539 C36.01589218 59.17594986 35.15507538 59.17587433 34.26817322 59.17579651 C33.33276199 59.17063522 32.39735077 59.16547394 31.43359375 59.16015625 C30.48057877 59.1587413 29.52756378 59.15732635 28.54566956 59.15586853 C25.48874835 59.15025152 22.43189923 59.13769616 19.375 59.125 C17.30794376 59.11998719 15.24088638 59.11542391 13.17382812 59.11132812 C8.09502412 59.10027656 3.0162743 59.08300055 -2.0625 59.0625 C-2.0625 57.7425 -2.0625 56.4225 -2.0625 55.0625 C11.1375 55.0625 24.3375 55.0625 37.9375 55.0625 C37.29756391 43.64927669 37.29756391 43.64927669 31.46875 34.6484375 C26.39080991 31.12741301 21.81635848 32.09611231 15.9375 33.0625 C15.9375 37.0225 15.9375 40.9825 15.9375 45.0625 C17.2575 44.4025 18.5775 43.7425 19.9375 43.0625 C23.0625 42.8125 23.0625 42.8125 25.9375 43.0625 C26.5975 43.7225 27.2575 44.3825 27.9375 45.0625 C27.38194444 49.61805556 27.38194444 49.61805556 25.9375 51.0625 C23.00767057 51.48104706 20.8380332 51.72498702 18.37109375 49.91015625 C17.83613281 49.44480469 17.30117187 48.97945312 16.75 48.5 C14.35658813 46.58740748 13.29966308 46.06764436 10.1875 46.0234375 C8.28085087 46.25162689 6.37920953 46.52895871 4.48828125 46.86328125 C1.53364695 47.09404136 0.32907854 46.78714596 -2.0625 45.0625 C-4.07862822 42.12257309 -4.28304667 39.99500846 -3.875 36.5 C-3.79894531 35.73558594 -3.72289062 34.97117188 -3.64453125 34.18359375 C-2.96494442 31.70697867 -2.00137729 30.69826439 -0.0625 29.0625 C0.81314408 32.05200363 1.01969138 34.64213862 0.9375 37.75 C0.89986969 39.18700738 0.89087141 40.62575645 0.9375 42.0625 C2.11468985 43.46682936 2.11468985 43.46682936 5.4375 43.1875 C8.76031015 43.46682936 8.76031015 43.46682936 9.9375 42.0625 C10.30510731 39.73432036 10.63991581 37.4006615 10.9375 35.0625 C10.195 34.835625 9.4525 34.60875 8.6875 34.375 C3.46962848 31.88465223 1.2165334 27.19032514 -1.0625 22.0625 C-1.0625 21.4025 -1.0625 20.7425 -1.0625 20.0625 C-3.96323181 19.38448966 -3.96323181 19.38448966 -7.0625 19.0625 C-7.7225 19.7225 -8.3825 20.3825 -9.0625 21.0625 C-11.4375 20.75 -11.4375 20.75 -14.0625 20.0625 C-14.825625 19.876875 -15.58875 19.69125 -16.375 19.5 C-16.931875 19.355625 -17.48875 19.21125 -18.0625 19.0625 C-20.51843447 21.97323715 -22.61750158 24.92375652 -24.5625 28.1875 C-26.38328033 31.15677254 -27.94195987 33.34082269 -31.0625 35.0625 C-31.7225 35.0625 -32.3825 35.0625 -33.0625 35.0625 C-32.87785634 39.40434202 -32.87785634 39.40434202 -31.0625 43.0625 C-27.5625 43.22916667 -27.5625 43.22916667 -24.0625 43.0625 C-22.77637324 42.00271067 -22.77637324 42.00271067 -22.96484375 39.55859375 C-22.97644531 38.54925781 -22.98804688 37.53992188 -23 36.5 C-23.00902344 35.48808594 -23.01804688 34.47617188 -23.02734375 33.43359375 C-23.03894531 32.65113281 -23.05054688 31.86867188 -23.0625 31.0625 C-22.0725 31.0625 -21.0825 31.0625 -20.0625 31.0625 C-17.95943402 34.47998222 -17.65646482 37.08335525 -18.0625 41.0625 C-19.375 43.875 -19.375 43.875 -21.0625 46.0625 C-24.77203805 47.29901268 -28.20893958 47.12906822 -32.0625 47.0625 C-36.3090605 47.0625 -37.79654106 48.03165146 -41.3203125 50.1640625 C-43.69291634 51.38760259 -45.44765943 51.51075838 -48.0625 51.0625 C-48.7225 50.4025 -49.3825 49.7425 -50.0625 49.0625 C-49.50694444 44.50694444 -49.50694444 44.50694444 -48.0625 43.0625 C-44.0245014 42.79330009 -41.58172149 43.13112682 -38.0625 45.0625 C-37.86676392 43.62609829 -37.68122184 42.18830496 -37.5 40.75 C-37.39558594 39.94949219 -37.29117188 39.14898437 -37.18359375 38.32421875 C-36.91494822 35.89432884 -36.91494822 35.89432884 -38.0625 33.0625 C-41.56723075 31.5797293 -45.33094275 31.74081403 -49.0625 32.0625 C-54.97013403 34.84256307 -56.81859788 38.16186849 -59.0625 44.0625 C-59.3925 47.6925 -59.7225 51.3225 -60.0625 55.0625 C-46.8625 55.0625 -33.6625 55.0625 -20.0625 55.0625 C-20.0625 56.0525 -20.0625 57.0425 -20.0625 58.0625 C-34.2525 58.0625 -48.4425 58.0625 -63.0625 58.0625 C-63.0625 39.21875 -63.0625 39.21875 -58.0625 34.0625 C-54.27314646 30.31103999 -51.19558426 28.22348749 -45.75 27.8125 C-42.0625 28.0625 -42.0625 28.0625 -39 29.625 C-35.36577846 31.40344884 -33.89525848 31.23721559 -30.0625 30.0625 C-28.22343327 27.70670528 -28.22343327 27.70670528 -27 24.75 C-24.85905167 20.44022641 -23.25595605 17.64308834 -19.0625 15.0625 C-18.2375 14.485 -17.4125 13.9075 -16.5625 13.3125 C-13.69720162 11.87985081 -12.22150759 11.58864886 -9.0625 12.0625 C-6.625 13.3125 -6.625 13.3125 -4.0625 15.0625 C-3.010625 15.743125 -1.95875 16.42375 -0.875 17.125 C1.9375 19.0625 1.9375 19.0625 3.9375 21.0625 C7.78672543 18.60054881 7.78672543 18.60054881 9.4375 14.5625 C8.86468989 11.69844943 7.86167491 10.22719677 5.9375 8.0625 C4.65875 8.26875 3.38 8.475 2.0625 8.6875 C-0.1171875 9.0390625 -0.1171875 9.0390625 -2.0625 9.0625 C-4.0625 7.0625 -4.0625 7.0625 -4.25 4 C-3.9998913 0.08163043 -3.9998913 0.08163043 0 0 Z " fill="#CEEBF6" transform="translate(228.0625,65.9375)"/>
<path d="M0 0 C3.34125 -0.0825 6.6825 -0.165 10.125 -0.25 C11.16672363 -0.28641602 12.20844727 -0.32283203 13.28173828 -0.36035156 C17.66386488 -0.41261004 20.58017052 -0.18494096 24.64453125 1.60546875 C27 4 27 4 27.69140625 7.12890625 C27.64886719 8.26199219 27.60632813 9.39507812 27.5625 10.5625 C27.54316406 11.69816406 27.52382813 12.83382812 27.50390625 14.00390625 C27 17 27 17 25.58984375 18.90234375 C24 20 24 20 22 20 C22.66 20.928125 23.32 21.85625 24 22.8125 C26 26 26 26 26 29 C23.36 29 20.72 29 18 29 C15 23.25 15 23.25 15 21 C12.69 21 10.38 21 8 21 C8 23.97 8 26.94 8 30 C5.36 30 2.72 30 0 30 C0 20.1 0 10.2 0 0 Z " fill="#144E91" transform="translate(312,243)"/>
<path d="M0 0 C2.6875 1.4375 2.6875 1.4375 5 3 C5.66 3.33 6.32 3.66 7 4 C7 4.66 7 5.32 7 6 C-0.47826087 8.60869565 -0.47826087 8.60869565 -4 9 C-4.66 8.34 -5.32 7.68 -6 7 C-8.03469174 7.04316826 -8.03469174 7.04316826 -10 8 C-11.38381218 9.63549262 -11.38381218 9.63549262 -12.4375 11.6875 C-18.05182565 21.26285295 -18.05182565 21.26285295 -22.3125 22.875 C-22.869375 22.91625 -23.42625 22.9575 -24 23 C-23.81535634 27.34184202 -23.81535634 27.34184202 -22 31 C-18.5 31.16666667 -18.5 31.16666667 -15 31 C-13.71387324 29.94021067 -13.71387324 29.94021067 -13.90234375 27.49609375 C-13.91394531 26.48675781 -13.92554688 25.47742188 -13.9375 24.4375 C-13.94652344 23.42558594 -13.95554688 22.41367188 -13.96484375 21.37109375 C-13.97644531 20.58863281 -13.98804688 19.80617188 -14 19 C-13.01 19 -12.02 19 -11 19 C-8.89693402 22.41748222 -8.59396482 25.02085525 -9 29 C-10.3125 31.8125 -10.3125 31.8125 -12 34 C-15.70953805 35.23651268 -19.14643958 35.06656822 -23 35 C-27.2465605 35 -28.73404106 35.96915146 -32.2578125 38.1015625 C-34.63041634 39.32510259 -36.38515943 39.44825838 -39 39 C-39.66 38.34 -40.32 37.68 -41 37 C-40.44444444 32.44444444 -40.44444444 32.44444444 -39 31 C-34.9620014 30.73080009 -32.51922149 31.06862682 -29 33 C-28.80426392 31.56359829 -28.61872184 30.12580496 -28.4375 28.6875 C-28.33308594 27.88699219 -28.22867188 27.08648437 -28.12109375 26.26171875 C-27.85244822 23.83182884 -27.85244822 23.83182884 -29 21 C-32.50473075 19.5172293 -36.26844275 19.67831403 -40 20 C-45.90763403 22.78006307 -47.75609788 26.09936849 -50 32 C-50.33 35.63 -50.66 39.26 -51 43 C-37.8 43 -24.6 43 -11 43 C-11 43.99 -11 44.98 -11 46 C-25.19 46 -39.38 46 -54 46 C-54 27.15625 -54 27.15625 -49 22 C-45.21064646 18.24853999 -42.13308426 16.16098749 -36.6875 15.75 C-33 16 -33 16 -29.9375 17.5625 C-26.30327846 19.34094884 -24.83275848 19.17471559 -21 18 C-19.16093327 15.64420528 -19.16093327 15.64420528 -17.9375 12.6875 C-15.79655167 8.37772641 -14.19345605 5.58058834 -10 3 C-9.175 2.4225 -8.35 1.845 -7.5 1.25 C-4.63470162 -0.18264919 -3.15900759 -0.47385114 0 0 Z " fill="#D2ECF6" transform="translate(219,78)"/>
<path d="M0 0 C2.97 0 5.94 0 9 0 C11.97 5.28 14.94 10.56 18 16 C18.33 10.72 18.66 5.44 19 0 C21.31 0 23.62 0 26 0 C26 9.57 26 19.14 26 29 C23.36 29 20.72 29 18 29 C15.9808894 26.75654378 14.88340912 25.22837183 13.5625 22.625 C13.22541016 22.02171875 12.88832031 21.4184375 12.54101562 20.796875 C11.30124031 18.56080729 10.14331568 16.28663136 9 14 C8.67 19.28 8.34 24.56 8 30 C5.36 30 2.72 30 0 30 C0 20.1 0 10.2 0 0 Z " fill="#104B8F" transform="translate(216,243)"/>
<path d="M0 0 C2.64 0 5.28 0 8 0 C8 9.9 8 19.8 8 30 C5.03 30 2.06 30 -1 30 C-3.97 24.72 -6.94 19.44 -10 14 C-10.33 18.95 -10.66 23.9 -11 29 C-13.31 29 -15.62 29 -18 29 C-18 19.76 -18 10.52 -18 1 C-10 1 -10 1 -7.7578125 3.046875 C-7.21898437 3.93890625 -6.68015625 4.8309375 -6.125 5.75 C-5.57070312 6.63171875 -5.01640625 7.5134375 -4.4453125 8.421875 C-3.2348994 10.58099025 -2.10696689 12.78606621 -1 15 C-0.67 10.05 -0.34 5.1 0 0 Z " fill="#114C90" transform="translate(145,243)"/>
<path d="M0 0 C1.4540625 0.0309375 1.4540625 0.0309375 2.9375 0.0625 C3.185 0.68125 3.4325 1.3 3.6875 1.9375 C4.74712759 4.17988845 4.74712759 4.17988845 6.8125 5 C9.70853371 6.44801685 11.10023437 8.43783481 12.9375 11.0625 C12.9375 11.7225 12.9375 12.3825 12.9375 13.0625 C13.9275 12.7325 14.9175 12.4025 15.9375 12.0625 C20.79831826 11.66407227 23.01965446 11.57854508 27.375 13.875 C29.9375 16.0625 29.9375 16.0625 30.9375 19.0625 C32.5875 19.3925 34.2375 19.7225 35.9375 20.0625 C36.13836443 23.77849191 36.0894437 24.83458445 33.9375 28.0625 C32.9475 28.0625 31.9575 28.0625 30.9375 28.0625 C30.9375 28.7225 30.9375 29.3825 30.9375 30.0625 C30.256875 29.8975 29.57625 29.7325 28.875 29.5625 C24.28799877 28.78173383 20.46321936 28.13218331 16.375 30.625 C13.9375 32.0625 13.9375 32.0625 10.9375 32.25 C6.98521376 30.68555337 5.84141882 28.54280357 3.72265625 24.97265625 C3.33400391 24.02712891 3.33400391 24.02712891 2.9375 23.0625 C3.9375 21.0625 3.9375 21.0625 6.5 19.25 C9.14669076 17.31394994 9.14669076 17.31394994 9.4375 14.5625 C8.86468989 11.69844943 7.86167491 10.22719677 5.9375 8.0625 C4.65875 8.26875 3.38 8.475 2.0625 8.6875 C-0.1171875 9.0390625 -0.1171875 9.0390625 -2.0625 9.0625 C-4.0625 7.0625 -4.0625 7.0625 -4.25 4 C-3.9998913 0.08163043 -3.9998913 0.08163043 0 0 Z " fill="#0F7BB8" transform="translate(228.0625,65.9375)"/>
<path d="M0 0 C1.32547852 0.02030273 1.32547852 0.02030273 2.67773438 0.04101562 C4.84792023 0.07620783 7.01779033 0.13001015 9.1875 0.1875 C9.1875 2.1675 9.1875 4.1475 9.1875 6.1875 C1.2675 6.6825 1.2675 6.6825 -6.8125 7.1875 C-6.8125 12.4675 -6.8125 17.7475 -6.8125 23.1875 C-3.5125 23.5175 -0.2125 23.8475 3.1875 24.1875 C3.1875 22.2075 3.1875 20.2275 3.1875 18.1875 C1.5375 18.1875 -0.1125 18.1875 -1.8125 18.1875 C-1.8125 16.5375 -1.8125 14.8875 -1.8125 13.1875 C2.4775 13.1875 6.7675 13.1875 11.1875 13.1875 C11.1875 18.4675 11.1875 23.7475 11.1875 29.1875 C6.32989056 30.15902189 1.9805738 30.44079365 -2.9375 30.5 C-3.74832031 30.52900391 -4.55914062 30.55800781 -5.39453125 30.58789062 C-6.17441406 30.59626953 -6.95429688 30.60464844 -7.7578125 30.61328125 C-8.46437988 30.62786377 -9.17094727 30.64244629 -9.89892578 30.6574707 C-11.8125 30.1875 -11.8125 30.1875 -13.53662109 28.49316406 C-15.91888932 24.18812366 -15.32431475 19.43655585 -15.3125 14.625 C-15.34085938 13.57119141 -15.36921875 12.51738281 -15.3984375 11.43164062 C-15.41770732 3.88268723 -15.41770732 3.88268723 -12.89453125 0.984375 C-8.54448608 -0.14035151 -4.47180006 -0.13005235 0 0 Z " fill="#134E91" transform="translate(175.8125,242.8125)"/>
<path d="M0 0 C7.92 0 15.84 0 24 0 C24 1.98 24 3.96 24 6 C18.72 6 13.44 6 8 6 C8 7.98 8 9.96 8 12 C11.96 12 15.92 12 20 12 C20 13.98 20 15.96 20 18 C16.04 18 12.08 18 8 18 C8 19.65 8 21.3 8 23 C13.28 23 18.56 23 24 23 C24 25.31 24 27.62 24 30 C16.08 30 8.16 30 0 30 C0 20.1 0 10.2 0 0 Z " fill="#1B5595" transform="translate(96,243)"/>
<path d="M0 0 C7.92 0 15.84 0 24 0 C24 1.98 24 3.96 24 6 C18.72 6 13.44 6 8 6 C8 7.98 8 9.96 8 12 C12.29 12 16.58 12 21 12 C21 13.98 21 15.96 21 18 C16.71 18 12.42 18 8 18 C8 19.65 8 21.3 8 23 C13.28 23 18.56 23 24 23 C24 24.98 24 26.96 24 29 C16.08 29 8.16 29 0 29 C0 19.43 0 9.86 0 0 Z " fill="#165093" transform="translate(251,243)"/>
<path d="M0 0 C7.92 0 15.84 0 24 0 C24 1.98 24 3.96 24 6 C18.72 6 13.44 6 8 6 C8 7.98 8 9.96 8 12 C12.29 12 16.58 12 21 12 C21 13.65 21 15.3 21 17 C16.71 17 12.42 17 8 17 C8 19.31 8 21.62 8 24 C13.28 24 18.56 24 24 24 C24 25.65 24 27.3 24 29 C16.08 29 8.16 29 0 29 C0 19.43 0 9.86 0 0 Z " fill="#124D90" transform="translate(281,243)"/>
<path d="M0 0 C-1.4267284 11.44450956 -3.40707724 26.60867074 -12 35 C-12.66 35 -13.32 35 -14 35 C-14 35.66 -14 36.32 -14 37 C-15.61457079 38.43581474 -17.29219075 39.80144783 -19 41.125 C-19.928125 41.84945312 -20.85625 42.57390625 -21.8125 43.3203125 C-22.8953125 44.15175781 -22.8953125 44.15175781 -24 45 C-26.55309813 42.52578973 -28.42741609 40.22379701 -30 37 C-29.9453125 35.09765625 -29.9453125 35.09765625 -29 33 C-26.3828125 30.9296875 -26.3828125 30.9296875 -23.125 28.875 C-22.05507812 28.19179687 -20.98515625 27.50859375 -19.8828125 26.8046875 C-18.93148437 26.20914063 -17.98015625 25.61359375 -17 25 C-16.01 24.34 -15.02 23.68 -14 23 C-13.79857292 21.03141372 -13.61165911 19.05909575 -13.53320312 17.08178711 C-13.12833952 7.21736803 -13.12833952 7.21736803 -9.72265625 3.54296875 C-3.71426399 0 -3.71426399 0 0 0 Z " fill="#DBF2FA" transform="translate(264,161)"/>
<path d="M0 0 C2.0625 0.6875 2.0625 0.6875 5 2 C5.60070312 2.22558594 6.20140625 2.45117188 6.8203125 2.68359375 C9.21877398 3.89285989 10.43734585 4.78203927 12 7 C12.24100274 9.57069592 12.37288098 12.05155486 12.4375 14.625 C12.58540209 18.64369791 12.86890156 21.74352435 15.63427734 24.81542969 C20.06261143 28.46654595 24.95658657 31.28873447 30 34 C29.01088094 38.23358353 27.22583401 41.26634296 25 45 C13.08438379 36.63371628 6.53763489 29.05622113 2.8125 14.9375 C2.53986328 13.94427734 2.26722656 12.95105469 1.98632812 11.92773438 C0.86748068 7.7636029 0 4.34309683 0 0 Z " fill="#DDF3FA" transform="translate(170,161)"/>
<path d="M0 0 C5.28 0 10.56 0 16 0 C16 1.98 16 3.96 16 6 C14.68 6 13.36 6 12 6 C12 11.94 12 17.88 12 24 C13.32 24 14.64 24 16 24 C16 25.98 16 27.96 16 30 C10.72 30 5.44 30 0 30 C0 27.69 0 25.38 0 23 C1.32 23 2.64 23 4 23 C4 17.39 4 11.78 4 6 C2.68 6 1.36 6 0 6 C0 4.02 0 2.04 0 0 Z " fill="#1A5394" transform="translate(193,243)"/>
<path d="M0 0 C4.57446809 17.14893617 4.57446809 17.14893617 5 26 C-1.89108911 26.83168317 -1.89108911 26.83168317 -4.796875 24.65234375 C-8.77522826 20.17177263 -10.57220061 15.93348155 -11.4375 10 C-10.81195407 5.71054217 -9.01264044 4.08436997 -6 1 C-4 0 -4 0 0 0 Z " fill="#12488D" transform="translate(157,140)"/>
<path d="M0 0 C4.36183585 1.30068614 7.30348898 2.41359161 10.15234375 6.16015625 C11.82248329 9.78520567 10.99291627 13.26314618 10 17 C8.25168155 21.63304389 6.2965329 24.46113965 2 27 C-0.33244128 27.06451433 -2.66775237 27.07117188 -5 27 C-3.8322916 17.83692346 -2.23443486 8.96753189 0 0 Z " fill="#0F71AF" transform="translate(277,139)"/>
<path d="M0 0 C4.81385457 1.89115715 7.03975032 5.37622012 9.60546875 9.71484375 C11.2125682 13.50075589 11.33647261 16.21802168 11.25 20.3125 C11.23453125 21.54613281 11.2190625 22.77976562 11.203125 24.05078125 C11 27 11 27 10 28 C8.64905018 28.09268999 7.29332909 28.11747326 5.93920898 28.11352539 C5.07839218 28.11344986 4.21757538 28.11337433 3.33067322 28.11329651 C2.39526199 28.10813522 1.45985077 28.10297394 0.49609375 28.09765625 C-0.45692123 28.0962413 -1.40993622 28.09482635 -2.39183044 28.09336853 C-5.44875165 28.08775152 -8.50560077 28.07519616 -11.5625 28.0625 C-13.62955624 28.05748719 -15.69661362 28.05292391 -17.76367188 28.04882812 C-22.84247588 28.03777656 -27.9212257 28.02050055 -33 28 C-33 26.68 -33 25.36 -33 24 C-19.8 24 -6.6 24 7 24 C6.34080094 13.7060704 6.34080094 13.7060704 2 5 C1.01 4.34 0.02 3.68 -1 3 C-0.67 2.01 -0.34 1.02 0 0 Z " fill="#B9DDEE" transform="translate(259,97)"/>
<path d="M0 0 C1.4540625 0.0309375 1.4540625 0.0309375 2.9375 0.0625 C3.185 0.68125 3.4325 1.3 3.6875 1.9375 C4.74712759 4.17988845 4.74712759 4.17988845 6.8125 5 C9.70853371 6.44801685 11.10023437 8.43783481 12.9375 11.0625 C12.9375 11.7225 12.9375 12.3825 12.9375 13.0625 C13.9275 12.7325 14.9175 12.4025 15.9375 12.0625 C20.79831826 11.66407227 23.01965446 11.57854508 27.375 13.875 C29.9375 16.0625 29.9375 16.0625 30.9375 19.0625 C32.5875 19.3925 34.2375 19.7225 35.9375 20.0625 C36.0625 22.4375 36.0625 22.4375 35.9375 25.0625 C33.9375 27.0625 33.9375 27.0625 31.4375 27.3125 C28.9375 27.0625 28.9375 27.0625 26.9375 25.0625 C26.97875 24.093125 27.02 23.12375 27.0625 22.125 C27.23356882 19.0583932 27.23356882 19.0583932 25.4375 17.125 C21.75766055 15.56106824 18.63660839 15.78124458 14.9375 17.0625 C12.89834442 18.5014363 11.15663869 20.03195594 9.3828125 21.78515625 C7.9375 23.0625 7.9375 23.0625 5.9375 23.0625 C6.51094937 20.19525314 6.7989515 19.2010485 8.9375 17.0625 C9.3574362 13.87098491 9.20674708 12.47758925 7.4375 9.75 C6.9425 9.193125 6.4475 8.63625 5.9375 8.0625 C4.65875 8.26875 3.38 8.475 2.0625 8.6875 C-0.1171875 9.0390625 -0.1171875 9.0390625 -2.0625 9.0625 C-4.0625 7.0625 -4.0625 7.0625 -4.25 4 C-3.9998913 0.08163043 -3.9998913 0.08163043 0 0 Z " fill="#D4F0F9" transform="translate(228.0625,65.9375)"/>
<path d="M0 0 C1.99954746 -0.04254356 4.00041636 -0.04080783 6 0 C7 1 7 1 7.125 4 C7 7 7 7 6 8 C4.5406783 7.96802283 3.08206293 7.89973516 1.625 7.8125 C-2.0516552 7.70754357 -2.0516552 7.70754357 -5.0625 9.6875 C-6.16422775 12.40509511 -6.4466994 14.0964539 -6 17 C-4.54166642 18.62514468 -4.54166642 18.62514468 -3 20 C-3 20.99 -3 21.98 -3 23 C-5.55635061 21.77295171 -7.89658082 20.44175157 -10.3125 18.9375 C-13.83225837 16.92404683 -16.89517923 16.07893886 -21 16 C-23.08333333 16.91666667 -23.08333333 16.91666667 -24 19 C-24.04080783 20.99958364 -24.04254356 23.00045254 -24 25 C-26 27 -26 27 -28.5 27.25 C-31 27 -31 27 -33 25 C-32.875 22.5 -32.875 22.5 -32 20 C-30.1875 19 -30.1875 19 -28 18 C-26.63755204 16.35704805 -25.30135125 14.69175663 -24 13 C-20.83013832 11.41506916 -17.45967739 11.7059958 -14 12 C-11.5 13 -11.5 13 -10 14 C-9.938125 13.46375 -9.87625 12.9275 -9.8125 12.375 C-8.59964736 8.82973843 -6.55389074 6.7407608 -4 4 C-3.34 4 -2.68 4 -2 4 C-1.34 2.68 -0.68 1.36 0 0 Z " fill="#D0EBF6" transform="translate(203,66)"/>
<path d="M0 0 C0.99 0.33 1.98 0.66 3 1 C3 1.66 3 2.32 3 3 C2.0925 3.53625 1.185 4.0725 0.25 4.625 C-3.99985401 7.36781358 -5.20062913 10.26832106 -7 15 C-7.33 18.63 -7.66 22.26 -8 26 C5.2 26 18.4 26 32 26 C32 26.99 32 27.98 32 29 C17.81 29 3.62 29 -11 29 C-11 10.175 -11 10.175 -4.4375 3.3828125 C-2.875 1.9375 -2.875 1.9375 0 0 Z " fill="#CBE6F2" transform="translate(176,95)"/>
<path d="M0 0 C1.588125 -0.061875 3.17625 -0.12375 4.8125 -0.1875 C6.15248047 -0.23970703 6.15248047 -0.23970703 7.51953125 -0.29296875 C10 0 10 0 11.84765625 1.23828125 C13.36882132 3.56385903 13.11382078 4.67265114 12.625 7.375 C12.09462873 10.87088803 11.99819945 13.54935367 13 17 C11.68 17 10.36 17 9 17 C8.67 15.02 8.34 13.04 8 11 C6.68 11 5.36 11 4 11 C4 12.98 4 14.96 4 17 C2.68 17 1.36 17 0 17 C0 11.39 0 5.78 0 0 Z " fill="#2E80B7" transform="translate(189,287)"/>
<path d="M0 0 C1.32 0 2.64 0 4 0 C4.02505615 0.84296631 4.0501123 1.68593262 4.07592773 2.55444336 C4.17088155 5.67241674 4.27012448 8.79021503 4.37231445 11.90795898 C4.41571223 13.25914147 4.4573837 14.61038053 4.49731445 15.96166992 C4.55489952 17.90036701 4.61914298 19.83886276 4.68359375 21.77734375 C4.72025146 22.94515381 4.75690918 24.11296387 4.79467773 25.31616211 C4.70076188 27.91779795 4.70076188 27.91779795 6 29 C6.04080783 30.99958364 6.04254356 33.00045254 6 35 C2.625 35.625 2.625 35.625 -1 36 C-1.66 35.34 -2.32 34.68 -3 34 C-2.44444444 29.44444444 -2.44444444 29.44444444 -1 28 C-0.8415735 25.9291528 -0.74875578 23.85321971 -0.68359375 21.77734375 C-0.64169922 20.51728516 -0.59980469 19.25722656 -0.55664062 17.95898438 C-0.51682404 16.61849264 -0.47711186 15.2779978 -0.4375 13.9375 C-0.39431958 12.59308477 -0.35070544 11.2486834 -0.30664062 9.90429688 C-0.20014642 6.6029766 -0.0981354 3.30157764 0 0 Z " fill="#C2E1F0" transform="translate(215,91)"/>
<path d="M0 0 C3.125 -0.1875 3.125 -0.1875 6 0 C8.29342747 5.89738492 9.34548714 10.66606918 9 17 C7.68 17 6.36 17 5 17 C5 16.01 5 15.02 5 14 C3.02 14 1.04 14 -1 14 C-1 14.99 -1 15.98 -1 17 C-2.32 17 -3.64 17 -5 17 C-4.54971412 14.72755724 -4.08949383 12.45708123 -3.625 10.1875 C-3.36976563 8.92292969 -3.11453125 7.65835937 -2.8515625 6.35546875 C-2 3 -2 3 0 0 Z " fill="#2177B1" transform="translate(272,287)"/>
<path d="M0 0 C1.32 0 2.64 0 4 0 C4 5.61 4 11.22 4 17 C2.68 17 1.36 17 0 17 C-1.484375 15.46875 -1.484375 15.46875 -2.75 13.5 C-3.17796875 12.8503125 -3.6059375 12.200625 -4.046875 11.53125 C-4.51867187 10.77328125 -4.51867187 10.77328125 -5 10 C-5.33 12.31 -5.66 14.62 -6 17 C-7.32 17 -8.64 17 -10 17 C-10 11.72 -10 6.44 -10 1 C-5 2 -5 2 -2.6875 5.0625 C-2.130625 6.031875 -1.57375 7.00125 -1 8 C-0.67 5.36 -0.34 2.72 0 0 Z " fill="#2479B2" transform="translate(226,287)"/>
<path d="M0 0 C2.475 0.495 2.475 0.495 5 1 C6.1875 3 6.1875 3 7 5 C7.66 5.33 8.32 5.66 9 6 C9.66 4.02 10.32 2.04 11 0 C12.65 0 14.3 0 16 0 C16 5.28 16 10.56 16 16 C14.68 16 13.36 16 12 16 C11.67 13.36 11.34 10.72 11 8 C10.01 9.485 10.01 9.485 9 11 C7.0625 10.625 7.0625 10.625 5 10 C4.67 9.34 4.34 8.68 4 8 C3.67 10.64 3.34 13.28 3 16 C2.01 16 1.02 16 0 16 C0 10.72 0 5.44 0 0 Z " fill="#2177B1" transform="translate(134,288)"/>
<path d="M0 0 C3.3 0 6.6 0 10 0 C10 0.99 10 1.98 10 3 C8.02 3 6.04 3 4 3 C4 3.99 4 4.98 4 6 C5.65 6 7.3 6 9 6 C9 7.32 9 8.64 9 10 C7.35 10 5.7 10 4 10 C4 10.99 4 11.98 4 13 C5.98 13 7.96 13 10 13 C10 13.99 10 14.98 10 16 C6.7 16 3.4 16 0 16 C0 10.72 0 5.44 0 0 Z " fill="#116CAB" transform="translate(165,288)"/>
<path d="M0 0 C1.4540625 0.0309375 1.4540625 0.0309375 2.9375 0.0625 C3.185 0.68125 3.4325 1.3 3.6875 1.9375 C4.74712759 4.17988845 4.74712759 4.17988845 6.8125 5 C9.70853371 6.44801685 11.10023437 8.43783481 12.9375 11.0625 C12.9375 11.7225 12.9375 12.3825 12.9375 13.0625 C13.9275 12.7325 14.9175 12.4025 15.9375 12.0625 C17.33189664 11.99584624 18.72919875 11.97711801 20.125 12 C22.0121875 12.0309375 22.0121875 12.0309375 23.9375 12.0625 C23.9375 12.3925 23.9375 12.7225 23.9375 13.0625 C17.5025 13.5575 17.5025 13.5575 10.9375 14.0625 C10.6075 15.0525 10.2775 16.0425 9.9375 17.0625 C9.504375 15.6703125 9.504375 15.6703125 9.0625 14.25 C8.05 10.96458333 8.05 10.96458333 5.9375 8.0625 C4.65875 8.26875 3.38 8.475 2.0625 8.6875 C-0.1171875 9.0390625 -0.1171875 9.0390625 -2.0625 9.0625 C-4.0625 7.0625 -4.0625 7.0625 -4.25 4 C-3.9998913 0.08163043 -3.9998913 0.08163043 0 0 Z " fill="#C6E7F4" transform="translate(228.0625,65.9375)"/>
<path d="M0 0 C1.64574566 -0.02688151 3.29161413 -0.04634123 4.9375 -0.0625 C5.85402344 -0.07410156 6.77054687 -0.08570313 7.71484375 -0.09765625 C10 0 10 0 11 1 C11.125 4.5 11.125 4.5 11 8 C10 9 10 9 7.71484375 9.09765625 C6.34005859 9.08025391 6.34005859 9.08025391 4.9375 9.0625 C4.01839844 9.05347656 3.09929687 9.04445313 2.15234375 9.03515625 C1.44207031 9.02355469 0.73179687 9.01195312 0 9 C0 6.03 0 3.06 0 0 Z " fill="#D9EFF8" transform="translate(320,249)"/>
<path d="M0 0 C2.6875 1.4375 2.6875 1.4375 5 3 C5.66 3.33 6.32 3.66 7 4 C7 4.66 7 5.32 7 6 C-0.47826087 8.60869565 -0.47826087 8.60869565 -4 9 C-4.66 8.34 -5.32 7.68 -6 7 C-8.57061311 6.35232207 -8.57061311 6.35232207 -11 6 C-10 3 -10 3 -7.75 1.3125 C-4.7501281 -0.11925704 -3.26810793 -0.49021619 0 0 Z " fill="#D6F0F9" transform="translate(219,78)"/>
<path d="M0 0 C3.125 -0.375 3.125 -0.375 6 0 C7 1 7 1 7.125 4 C7 7 7 7 6 8 C3.70418219 8.07188471 1.42482931 7.99646432 -0.87109375 7.9375 C-3.05502216 7.85218862 -3.05502216 7.85218862 -5 9 C-4.35330586 7.65686601 -3.68096422 6.32608822 -3 5 C-2.5875 4.0925 -2.175 3.185 -1.75 2.25 C-1.1725 1.5075 -0.595 0.765 0 0 Z " fill="#D8F1FA" transform="translate(203,66)"/>
<path d="M0 0 C1.08073852 3.24221555 1.21676408 5.60402937 1 9 C-1 11 -1 11 -3.5 11.25 C-6 11 -6 11 -8 9 C-8.0625 6.625 -8.0625 6.625 -7 4 C-4.76120591 2.33429435 -2.52499982 1.23954537 0 0 Z " fill="#DFF5FC" transform="translate(178,82)"/>
<path d="M0 0 C1.32 0 2.64 0 4 0 C4 5.61 4 11.22 4 17 C2.68 17 1.36 17 0 17 C0 11.39 0 5.78 0 0 Z " fill="#2277B2" transform="translate(296,287)"/>
<path d="M0 0 C0.66 0.33 1.32 0.66 2 1 C2 4.96 2 8.92 2 13 C4.31 13.66 6.62 14.32 9 15 C5.90428591 16.83449724 3.59379371 17.6450399 0 17 C-2.2355543 14.68992722 -2.98779264 12.99577193 -3.02734375 9.76953125 C-2.66440668 5.72443267 -2.29902147 3.44853221 0 0 Z " fill="#C2E2F1" transform="translate(227,95)"/>
<path d="M0 0 C2.475 0.495 2.475 0.495 5 1 C5.33 2.98 5.66 4.96 6 7 C5.01 6.67 4.02 6.34 3 6 C3 9.3 3 12.6 3 16 C2.01 16 1.02 16 0 16 C0 10.72 0 5.44 0 0 Z " fill="#126DAB" transform="translate(134,288)"/>
<path d="M0 0 C3 2 3 2 3.6171875 3.98828125 C4.04337972 7.8304687 4.25783383 10.34863032 2.8125 14 C0.85571743 16.15920836 -0.13994749 16.7041325 -3 17 C-2.67128906 16.29359375 -2.34257812 15.5871875 -2.00390625 14.859375 C-0.91629791 11.7615956 -0.82721643 9.51439378 -0.9375 6.25 C-0.99128855 4.50070276 -1.02055373 2.75000331 -1 1 C-0.67 0.67 -0.34 0.34 0 0 Z " fill="#C3E2F0" transform="translate(206,96)"/>
<path d="M0 0 C2 1.375 2 1.375 3 3 C3 3.66 3 4.32 3 5 C1.96939453 4.85691406 1.96939453 4.85691406 0.91796875 4.7109375 C0.01691406 4.60007812 -0.88414062 4.48921875 -1.8125 4.375 C-3.15248047 4.20097656 -3.15248047 4.20097656 -4.51953125 4.0234375 C-7.25690391 3.76499257 -7.25690391 3.76499257 -10 6 C-10.99 5.34 -11.98 4.68 -13 4 C-8.63746709 -0.36253291 -5.90603152 -0.66681001 0 0 Z " fill="#BEDFEF" transform="translate(189,78)"/>
<path d="M0 0 C2.45605371 2.55274874 2.98802939 3.85890643 3.29296875 7.453125 C3.24076172 9.33257812 3.24076172 9.33257812 3.1875 11.25 C3.14689453 13.14492187 3.14689453 13.14492187 3.10546875 15.078125 C3.07066406 16.04234375 3.03585937 17.0065625 3 18 C2.67 18 2.34 18 2 18 C1.67 14.04 1.34 10.08 1 6 C0.67 8.97 0.34 11.94 0 15 C-0.33 15 -0.66 15 -1 15 C-1.33 10.71 -1.66 6.42 -2 2 C-1.34 2 -0.68 2 0 2 C0 1.34 0 0.68 0 0 Z " fill="#90C7E2" transform="translate(267,106)"/>
<path d="M0 0 C3.96 0 7.92 0 12 0 C12 0.99 12 1.98 12 3 C8.04 3 4.08 3 0 3 C0 2.01 0 1.02 0 0 Z " fill="#5196C4" transform="translate(243,305)"/>
<path d="M0 0 C0.66 0.33 1.32 0.66 2 1 C2 4 2 4 0.1875 6.125 C-2 8 -2 8 -5 9 C-3.90931332 5.22454612 -3.0916909 2.52956528 0 0 Z " fill="#C1E2F1" transform="translate(207,82)"/>
<path d="M0 0 C0.66 0.33 1.32 0.66 2 1 C1.34 1.66 0.68 2.32 0 3 C-0.60311615 4.68761858 -1.13850237 6.40014476 -1.625 8.125 C-1.88539063 9.03507812 -2.14578125 9.94515625 -2.4140625 10.8828125 C-2.60742188 11.58148438 -2.80078125 12.28015625 -3 13 C-3.33 11.68 -3.66 10.36 -4 9 C-4.66 9 -5.32 9 -6 9 C-4.68775452 5.06326356 -3.08089673 2.77280706 0 0 Z " fill="#C5E4F2" transform="translate(199,70)"/>
<path d="M0 0 C1.22589844 0.01353516 1.22589844 0.01353516 2.4765625 0.02734375 C3.41628906 0.04474609 3.41628906 0.04474609 4.375 0.0625 C4.045 0.7225 3.715 1.3825 3.375 2.0625 C0.87109375 2.6953125 0.87109375 2.6953125 -2.1875 3.1875 C-3.70537109 3.43886719 -3.70537109 3.43886719 -5.25390625 3.6953125 C-6.42759766 3.87707031 -6.42759766 3.87707031 -7.625 4.0625 C-7.295 3.0725 -6.965 2.0825 -6.625 1.0625 C-4.21954362 -0.14022819 -2.67503047 -0.03821472 0 0 Z " fill="#DFF6FD" transform="translate(249.625,78.9375)"/>
<path d="M0 0 C0.33 0.66 0.66 1.32 1 2 C1.66 2 2.32 2 3 2 C2.67 6.29 2.34 10.58 2 15 C1.67 15 1.34 15 1 15 C0.93941406 14.39671875 0.87882813 13.7934375 0.81640625 13.171875 C0.69072266 11.97304687 0.69072266 11.97304687 0.5625 10.75 C0.48128906 9.96109375 0.40007812 9.1721875 0.31640625 8.359375 C0.05536338 6.0104271 0.05536338 6.0104271 -0.59765625 3.828125 C-1 2 -1 2 0 0 Z " fill="#AFD0E4" transform="translate(166,106)"/>
<path d="M0 0 C0.99 0 1.98 0 3 0 C3 1.98 3 3.96 3 6 C2.01 6 1.02 6 0 6 C0 4.02 0 2.04 0 0 Z " fill="#BDDEEF" transform="translate(273,291)"/>
<path d="M0 0 C1.32 0.66 2.64 1.32 4 2 C4 2.99 4 3.98 4 5 C3.01 5 2.02 5 1 5 C1 4.34 1 3.68 1 3 C0.01 2.67 -0.98 2.34 -2 2 C-1.34 1.34 -0.68 0.68 0 0 Z " fill="#C1E3F2" transform="translate(226,83)"/>
</svg>
